<?xml version="1.0" standalone="no"?>
<!DOCTYPE svg PUBLIC "-//W3C//DTD SVG 20010904//EN"
 "http://www.w3.org/TR/2001/REC-SVG-20010904/DTD/svg10.dtd">
<svg version="1.0" xmlns="http://www.w3.org/2000/svg"
 width="256.000000pt" height="256.000000pt" viewBox="0 0 256.000000 256.000000"
 preserveAspectRatio="xMidYMid meet">
<metadata>
Created by potrace 1.11, written by Peter Selinger 2001-2013
</metadata>
<g transform="translate(0.000000,256.000000) scale(0.100000,-0.100000)"
fill="#000000" stroke="none">
<path d="M1667 2467 c-53 -92 -177 -343 -177 -361 0 -8 -19 -28 -42 -45 -74
-51 -129 -133 -194 -287 -37 -90 -106 -202 -125 -203 -4 -1 -51 54 -105 120
-55 67 -103 127 -109 133 -5 6 -22 27 -37 48 -15 20 -33 42 -40 50 -21 22
-108 136 -108 141 0 3 9 7 20 10 20 5 37 33 27 43 -3 4 -16 -1 -29 -10 -36
-26 -44 -18 -14 13 15 16 26 37 24 47 -3 17 -5 17 -26 -4 -27 -27 -36 -28 -22
-3 14 27 13 61 -2 61 -7 0 -26 -12 -42 -27 -31 -28 -31 -27 2 7 17 20 32 41
32 47 0 11 -29 28 -42 25 -5 -1 -8 4 -8 12 0 8 -7 16 -15 20 -8 3 -15 13 -15
22 0 10 -5 14 -14 11 -10 -4 -16 2 -18 16 -3 19 -9 22 -50 22 -36 0 -44 3 -36
13 19 22 -2 27 -35 8 l-32 -18 21 24 c20 21 29 58 15 58 -3 0 -19 -11 -35 -25
-35 -30 -46 -33 -21 -5 15 16 16 23 6 33 -9 9 -18 8 -41 -5 -21 -12 -27 -13
-24 -3 7 18 -10 27 -40 19 -16 -4 -23 -11 -19 -17 10 -17 10 -97 0 -97 -5 0
-4 -7 3 -15 9 -11 17 -12 34 -4 19 9 19 9 4 -4 -19 -15 -25 -47 -9 -47 5 0 13
-9 16 -20 4 -11 11 -18 16 -15 5 3 6 -1 3 -9 -4 -11 0 -16 12 -16 16 0 16 -2
4 -10 -12 -7 -12 -12 4 -29 30 -33 51 -34 106 -6 29 15 50 23 47 18 -3 -5 -33
-22 -66 -37 -66 -32 -86 -56 -46 -56 15 0 25 -6 25 -15 0 -12 5 -13 26 -4 35
13 44 3 10 -12 -34 -16 -34 -33 1 -24 23 5 25 4 14 -9 -15 -18 -5 -40 15 -32
8 3 14 -1 14 -9 0 -18 14 -19 43 -4 21 11 21 10 -2 -15 -22 -23 -23 -26 -6
-26 10 0 29 10 42 22 20 19 25 20 38 7 22 -22 405 -513 405 -519 0 -3 -64 -89
-142 -192 -79 -102 -153 -198 -165 -214 -12 -16 -59 -79 -105 -139 -133 -176
-390 -526 -423 -575 -16 -25 -33 -47 -36 -50 -3 -3 -11 -15 -18 -28 -10 -18
-10 -26 0 -38 7 -8 16 -13 20 -12 4 2 70 62 145 133 176 167 165 156 470 452
363 351 438 423 445 423 3 0 41 -46 85 -102 43 -56 84 -106 89 -112 6 -6 20
-24 32 -40 l23 -28 -46 -42 c-67 -60 -64 -77 32 -183 43 -49 81 -90 84 -93 3
-3 23 -25 44 -50 22 -25 72 -81 111 -125 40 -44 132 -147 205 -230 73 -82 139
-156 146 -164 42 -46 297 127 349 236 18 38 19 36 -84 149 -25 28 -71 79 -102
115 -31 35 -67 76 -80 90 -13 14 -49 53 -79 88 -30 35 -66 75 -80 90 -14 15
-54 60 -90 101 -145 164 -131 152 -170 145 -19 -4 -56 -16 -82 -27 -26 -11
-51 -18 -56 -17 -8 3 -169 193 -231 272 -13 16 -8 25 55 88 38 39 130 121 204
182 74 62 144 120 155 130 53 48 127 99 203 137 45 23 82 44 82 46 0 3 -6 2
-12 -1 -13 -7 21 25 77 73 17 13 44 37 60 51 17 14 8 3 -20 -25 -27 -28 -63
-59 -79 -69 -16 -11 -24 -21 -18 -23 13 -4 171 99 200 131 22 25 38 67 24 67
-4 0 -19 -11 -32 -25 -13 -14 -25 -23 -28 -21 -2 3 12 19 32 36 20 18 36 41
36 51 0 37 -13 28 -160 -108 -82 -76 -148 -124 -152 -111 -3 8 -16 3 -39 -14
-37 -27 -68 -46 -58 -34 4 4 31 25 60 47 30 22 105 88 168 147 63 59 123 113
133 120 19 14 16 32 -6 32 -7 0 -35 -19 -62 -42 l-49 -43 48 54 c44 50 59 77
37 69 -5 -1 -76 -68 -157 -148 -81 -80 -166 -159 -188 -174 -25 -18 -14 -4 30
37 229 213 309 297 297 309 -8 8 -15 9 -20 3 -4 -6 -21 -21 -37 -35 l-30 -25
28 31 c28 31 35 54 17 54 -11 0 -166 -151 -215 -210 -17 -19 -59 -69 -95 -109
-101 -116 -40 -68 118 92 78 79 141 141 140 136 -2 -5 -67 -73 -145 -153 -100
-101 -141 -149 -137 -160 3 -9 1 -16 -6 -16 -6 0 -8 5 -5 10 3 6 0 10 -7 10
-8 0 -20 6 -26 12 -10 10 -1 23 41 63 48 45 87 87 191 205 16 19 55 61 84 92
42 44 51 59 39 63 -20 8 -175 -151 -315 -322 -59 -73 -68 -81 -81 -68 -13 12
-13 17 -2 27 12 11 13 9 7 -7 -6 -21 59 45 154 156 30 35 88 97 127 139 40 41
73 84 73 95 0 15 -14 6 -58 -40 -56 -58 -141 -156 -197 -227 -59 -75 -89 -108
-93 -103 -3 3 7 19 23 35 16 16 26 32 23 35 -2 3 -23 -18 -46 -46 -23 -29 -42
-47 -42 -41 0 6 22 37 48 69 54 66 189 243 244 320 28 39 33 53 23 57 -17 6
-30 -9 -212 -243 -70 -91 -135 -167 -143 -169 -8 -3 3 15 26 39 61 66 112 132
209 268 68 95 84 125 74 132 -14 8 -23 0 -81 -69 -38 -46 -176 -241 -212 -299
-22 -35 -40 -63 -42 -63 -18 0 14 53 119 197 159 219 181 252 174 259 -16 16
-44 -17 -136 -158 -124 -190 -181 -271 -187 -265 -3 3 24 47 60 98 92 134 216
328 216 339 0 6 -6 10 -14 10 -7 0 -37 -39 -67 -87 -29 -49 -67 -109 -84 -135
-118 -186 -140 -218 -143 -209 -3 10 37 73 51 79 4 2 7 8 7 13 0 5 15 33 34
62 120 188 176 279 176 287 0 15 -40 12 -40 -2 -1 -7 -7 -2 -14 11 l-13 24
-19 -22 c-19 -21 -44 -67 -169 -307 -35 -67 -66 -119 -69 -116 -5 5 59 133
181 360 53 98 37 115 -20 19z m-1181 -196 c-7 -10 -66 -33 -66 -25 0 4 57 32
68 34 2 0 1 -4 -2 -9z m1082 -143 c-17 -34 -34 -56 -36 -50 -3 10 56 112 65
112 2 0 -11 -28 -29 -62z m-913 2 c-10 -11 -23 -20 -29 -20 -6 0 0 9 14 20 32
25 38 25 15 0z m1365 -103 c0 -2 -10 -12 -22 -23 l-23 -19 19 23 c18 21 26 27
26 19z m-70 -62 c-34 -36 -130 -109 -135 -103 -3 3 19 21 48 41 30 21 64 48
77 62 13 14 26 25 28 25 3 0 -5 -11 -18 -25z m10 -69 c0 -2 -8 -10 -17 -17
-16 -13 -17 -12 -4 4 13 16 21 21 21 13z m-60 -51 c-13 -14 -28 -25 -34 -25
-6 0 3 11 19 25 39 31 45 32 15 0z"/>
<path d="M1633 2488 c-32 -33 -89 -134 -112 -198 -38 -103 -61 -173 -61 -183
1 -7 48 80 105 193 57 113 103 209 102 213 -1 4 -17 -7 -34 -25z"/>
<path d="M1980 2329 c-80 -96 -202 -260 -198 -265 3 -2 32 31 65 74 33 43 93
109 132 148 64 63 88 104 61 104 -5 0 -32 -27 -60 -61z"/>
<path d="M2229 2161 c-32 -20 -265 -241 -254 -241 17 0 293 246 284 253 -2 3
-16 -3 -30 -12z"/>
</g>
</svg>
